<svg xmlns="http://www.w3.org/2000/svg" width="51" height="26" viewBox="0 0 51 26">
    <g fill="none" fill-rule="evenodd" stroke="#006491" stroke-linecap="round" stroke-width="1.5">
        <path d="M10.94 6.953s2.088 3.308 3.827 2.067c1.473-1.05-.837-5.784-2.796-6.089-3.38-.526-7.594 3.55-6.041 9.472.758 2.894 3.02 3.76 3.02 3.76" transform="translate(1 1)"/>
        <path d="M5.93 12.403S0 11.726 0 0h7.608v4.654M36.802 8.647L39.99 13.305 39.99 23.678 8.95 23.678 8.95 13.305 12.138 8.647" transform="translate(1 1)"/>
        <path d="M38 6.953s-2.088 3.308-3.827 2.067c-1.473-1.05.837-5.784 2.796-6.089 3.38-.526 7.594 3.55 6.042 9.472-.76 2.894-3.02 3.76-3.02 3.76" transform="translate(1 1)"/>
        <path d="M43.01 12.403S48.94 11.726 48.94 0h-7.607v4.654M8.95 13.305L39.99 13.305M39.99 18.717L8.95 18.717M14.798 6.022L34.193 6.022" transform="translate(1 1)"/>
    </g>
</svg>
